<?xml version="1.0" encoding="UTF-8"?>
<svg id="Layer_1" xmlns="http://www.w3.org/2000/svg" version="1.1" viewBox="0 0 1200 800">
  <!-- Generator: Adobe Illustrator 29.8.2, SVG Export Plug-In . SVG Version: 2.1.1 Build 3)  -->
  <defs>
    <style>
      .st0, .st1, .st2 {
        fill: #f89d59;
      }

      .st3 {
        fill: #131317;
      }

      .st4 {
        font-size: 15.05px;
        letter-spacing: .5em;
      }

      .st1 {
        font-size: 59px;
      }

      .st1, .st2 {
        font-family: MicrosoftUighur, 'Microsoft Uighur';
      }

      .st5 {
        font-size: 20px;
        letter-spacing: .5em;
      }
    </style>
  </defs>
  <rect class="st3" x="-.56" y="2.32" width="1200" height="800"/>
  <text class="st1" transform="translate(326.45 638.64) scale(1.15 1)"><tspan x="0" y="0">STYLED BY CAT PHILLIPS</tspan></text>
  <text class="st2" transform="translate(344.86 664.64)"><tspan class="st5" x="0" y="0">SIGNATURE EXECUTIVE PRESENCE</tspan><tspan class="st4" x="508.07" y="0"> </tspan></text>
  <g>
    <path class="st0" d="M785.84,400c.11-1.04-.25-2.14-1.29-2.9-17.81-13.04-40.4-18.92-62.22-16.1,13.87-17.81,24.15-38.34,29.99-60.19.38-.47.6-1.09.58-1.88-.25-9.4-3.65-17.49-9.77-24.57-5.33-6.16-13.18-10.73-21.49-10.52-1.59.04-3.18.25-4.72.62.37-1.55.57-3.13.61-4.73.21-8.34-4.34-16.21-10.49-21.56-7.06-6.14-15.12-9.54-24.49-9.8-.78-.02-1.4.21-1.87.58-21.78,5.86-42.25,16.17-60,30.09,2.82-21.89-3.05-44.55-16.04-62.41-.76-1.05-1.86-1.4-2.89-1.3-1.04-.11-2.13.25-2.89,1.3-12.99,17.87-18.87,40.53-16.04,62.41-17.75-13.92-38.22-24.23-60-30.09-.47-.38-1.09-.61-1.87-.58-9.37.25-17.44,3.66-24.49,9.8-6.15,5.35-10.69,13.22-10.49,21.56.04,1.6.25,3.19.61,4.73-1.54-.37-3.13-.58-4.72-.62-8.31-.21-16.16,4.36-21.49,10.52-6.12,7.08-9.51,15.17-9.77,24.57-.02.78.21,1.41.58,1.88,5.84,21.85,16.12,42.38,29.99,60.19-21.82-2.83-44.41,3.06-62.22,16.1-1.04.76-1.4,1.86-1.29,2.9h0c-.11,1.04.25,2.14,1.29,2.9,17.81,13.04,40.4,18.92,62.22,16.1-13.87,17.81-24.15,38.34-29.99,60.19-.38.47-.6,1.09-.58,1.88.25,9.4,3.65,17.49,9.77,24.57,5.33,6.16,13.18,10.73,21.49,10.52,1.59-.04,3.18-.25,4.72-.62-.37,1.55-.57,3.13-.61,4.73-.21,8.34,4.34,16.21,10.49,21.56,7.06,6.14,15.12,9.54,24.49,9.8.78.02,1.4-.21,1.87-.58,21.78-5.86,42.25-16.17,60-30.09-2.82,21.89,3.05,44.55,16.04,62.41.76,1.05,1.86,1.4,2.89,1.3,1.04.11,2.13-.25,2.89-1.3,12.99-17.87,18.87-40.53,16.04-62.41,17.75,13.92,38.22,24.23,60,30.09.47.38,1.09.61,1.87.58,9.37-.25,17.44-3.66,24.49-9.8,6.15-5.35,10.69-13.22,10.49-21.56-.04-1.6-.25-3.19-.61-4.73,1.54.37,3.13.58,4.72.62,8.31.21,16.16-4.36,21.49-10.52,6.12-7.08,9.51-15.17,9.77-24.57.02-.78-.21-1.41-.58-1.88-5.84-21.85-16.12-42.38-29.99-60.19,21.82,2.83,44.41-3.06,62.22-16.1,1.04-.76,1.4-1.86,1.29-2.9h0ZM713.1,292.61c4.22-2.98,9.94-3.31,14.76-1.72,11.17,3.69,18.27,15.77,18.94,27.09-1.76,6.8-3.94,13.49-6.56,20.01-6.28,15.68-15.09,30.29-25.89,43.23-6.02-2.55-10.51-8.44-11.08-15.01-.68-7.92,3.6-13.55,9.04-18.69,5.44-5.14,10.15-10.46,13.12-17.44,2.86-6.71,4.1-14.03,3.45-21.3-.34-3.76-6.06-3.89-6.08-.33-.06.07-.12.14-.17.22-2.96,4.18-10.04,3.44-12.87-.46-2.68-3.7-2.19-8.81.25-12.48,1.16-.92,2.19-1.97,3.09-3.13ZM697.91,441.71c.87,3.43,2.51,6.38,4.57,9.06-4.01-.3-8.17.16-12.11.7-8.81,1.2-16.92,4.71-25.56,6.52-2.24-4.08-2-9.21-.63-13.58,1.8-5.69,5.92-10.29,10.18-14.3,8.98-8.46,19.75-15.59,23.93-27.79.26.22.55.41.86.55,3.88,3.55,7.58,7.28,11.1,11.19-9.78,5.29-15.18,16.44-12.35,27.65ZM702.2,500.77c-6.26-1.06-13.2,1.23-16.39,7.02-1.14,2.08-1.75,4.36-1.84,6.64-5.41-10.9-6.71-23.55-3.43-35.39,11.8-3.29,24.41-1.98,35.28,3.44-2.27.09-4.55.7-6.62,1.84-5.77,3.2-8.06,10.16-7,16.44ZM678.34,473.34c-.91-.04-1.83.27-2.47,1.02-.75.64-1.06,1.56-1.02,2.48-4.27,14.59-2.19,30.81,5.59,43.84-2.7-.6-5.34-1.5-7.86-2.71-4.1-1.97-7.47-4.62-10.63-7.66-.07-.31-.19-.6-.39-.87-4.56-6.05-3.38-13.96-2.38-20.98,1.17-8.24,4.66-15.89,6.3-24.02.09-.07.17-.15.25-.23.08-.08.16-.16.23-.25,8.1-1.65,15.73-5.15,23.94-6.32,7.01-1,14.89-2.19,20.92,2.39.26.2.56.32.87.39,3.03,3.17,5.67,6.55,7.63,10.66,1.21,2.53,2.1,5.17,2.7,7.88-12.99-7.8-29.15-9.89-43.7-5.61ZM657.73,456.16c-9.08-2.27-19.11,2.05-26.2,8.4-9.69,8.68-16.44,22.25-29.43,26.56-.12.04-.24.09-.35.14-.11-.05-.23-.1-.35-.14-12.99-4.31-19.73-17.88-29.43-26.56-7.09-6.35-17.12-10.66-26.2-8.4,2.26-9.11-2.04-19.17-8.37-26.28-8.65-9.73-22.18-16.49-26.48-29.52-.04-.12-.09-.24-.14-.35h0c.05-.11.1-.23.14-.35,4.29-13.03,17.82-19.8,26.48-29.52,6.33-7.11,10.63-17.17,8.37-26.28,9.08,2.27,19.11-2.05,26.2-8.4,9.69-8.68,16.44-22.25,29.43-26.56.12-.04.24-.09.35-.14.11.05.23.1.35.14,12.99,4.31,19.73,17.88,29.43,26.56,7.09,6.35,17.12,10.66,26.2,8.4-2.26,9.11,2.04,19.17,8.37,26.28,8.65,9.73,22.18,16.49,26.48,29.52.04.12.09.24.14.35h0c-.05.11-.1.23-.14.35-4.29,13.03-17.82,19.8-26.48,29.52-6.33,7.11-10.63,17.17-8.37,26.28ZM613.54,515.02c-2.07,9.47-5.77,18.51-11.79,26.11-6.01-7.6-9.71-16.64-11.79-26.11,4.12-3.62,8.05-7.44,11.79-11.46,3.74,4.01,7.67,7.84,11.79,11.46ZM494.31,484.32c-2.07-1.15-4.35-1.75-6.62-1.84,10.86-5.43,23.48-6.73,35.28-3.44,3.27,11.84,1.98,24.49-3.43,35.39-.09-2.28-.69-4.56-1.84-6.64-3.19-5.79-10.13-8.08-16.39-7.02,1.06-6.28-1.23-13.24-7-16.44ZM528.65,476.83c.04-.91-.27-1.84-1.02-2.48-.63-.75-1.56-1.06-2.47-1.02-14.55-4.28-30.71-2.19-43.7,5.61.6-2.71,1.5-5.36,2.7-7.88,1.97-4.11,4.6-7.49,7.63-10.66.31-.07.6-.19.87-.39,6.03-4.57,13.91-3.39,20.92-2.39,8.22,1.18,15.84,4.67,23.94,6.32.07.09.15.17.23.25.08.08.16.16.25.23,1.65,8.13,5.13,15.78,6.3,24.02,1,7.03,2.18,14.93-2.38,20.98-.2.26-.32.56-.39.87-3.16,3.04-6.53,5.68-10.63,7.66-2.52,1.21-5.16,2.11-7.86,2.71,7.78-13.03,9.86-29.24,5.59-43.84ZM538.69,457.99c-8.64-1.81-16.75-5.32-25.56-6.52-3.94-.54-8.1-1-12.11-.7,2.06-2.68,3.71-5.63,4.57-9.06,2.83-11.21-2.57-22.36-12.35-27.65,3.52-3.91,7.23-7.64,11.1-11.19.31-.14.6-.33.86-.55,4.18,12.2,14.95,19.33,23.93,27.79,4.26,4.01,8.38,8.61,10.18,14.3,1.38,4.37,1.61,9.5-.63,13.58ZM505.6,358.29c-.87-3.43-2.51-6.38-4.57-9.06,4.01.3,8.17-.16,12.11-.7,8.81-1.2,16.92-4.71,25.56-6.52,2.24,4.08,2,9.21.63,13.58-1.8,5.69-5.92,10.29-10.18,14.3-8.98,8.46-19.75,15.59-23.93,27.79-.26-.22-.55-.41-.86-.55-3.88-3.55-7.58-7.28-11.1-11.19,9.78-5.29,15.18-16.44,12.35-27.65ZM501.31,299.23c6.26,1.06,13.2-1.23,16.39-7.02,1.14-2.08,1.75-4.36,1.84-6.64,5.41,10.9,6.71,23.55,3.43,35.39-11.8,3.29-24.41,1.98-35.28-3.44,2.27-.09,4.55-.7,6.62-1.84,5.77-3.2,8.06-10.16,7-16.44ZM525.16,326.66c.91.04,1.83-.27,2.47-1.02.75-.64,1.06-1.56,1.02-2.48,4.27-14.59,2.19-30.81-5.59-43.84,2.7.6,5.34,1.5,7.86,2.71,4.1,1.97,7.47,4.62,10.63,7.66.07.31.19.6.39.87,4.56,6.05,3.38,13.96,2.38,20.98-1.17,8.24-4.66,15.89-6.3,24.02-.09.07-.17.15-.25.23-.08.08-.16.16-.23.25-8.1,1.65-15.73,5.15-23.94,6.32-7.01,1-14.89,2.19-20.92-2.39-.26-.2-.56-.32-.87-.39-3.03-3.17-5.67-6.55-7.63-10.66-1.21-2.53-2.1-5.17-2.7-7.88,12.99,7.8,29.15,9.89,43.7,5.61ZM589.97,284.98c2.07-9.47,5.77-18.51,11.79-26.11,6.01,7.6,9.71,16.64,11.79,26.11-4.12,3.62-8.05,7.44-11.79,11.46-3.74-4.01-7.67-7.84-11.79-11.46ZM699.16,397.13c-.31.14-.6.33-.86.55-4.18-12.2-14.95-19.33-23.93-27.79-4.26-4.01-8.38-8.61-10.18-14.3-1.38-4.37-1.61-9.5.63-13.58,8.64,1.81,16.75,5.32,25.56,6.52,3.94.54,8.1,1,12.11.7-2.06,2.68-3.71,5.63-4.57,9.06-2.83,11.21,2.57,22.36,12.35,27.65-3.52,3.91-7.23,7.64-11.1,11.19ZM709.2,315.68c2.07,1.15,4.35,1.75,6.62,1.84-10.86,5.43-23.48,6.73-35.28,3.44-3.27-11.84-1.98-24.49,3.43-35.39.09,2.28.69,4.56,1.84,6.64,3.19,5.79,10.13,8.08,16.39,7.02-1.06,6.28,1.23,13.24,7,16.44ZM674.86,323.17c-.04.91.27,1.84,1.02,2.48.63.75,1.56,1.06,2.47,1.02,14.55,4.28,30.71,2.19,43.7-5.61-.6,2.71-1.5,5.36-2.7,7.88-1.97,4.11-4.6,7.49-7.63,10.66-.31.07-.6.19-.87.39-6.03,4.57-13.91,3.39-20.92,2.39-8.22-1.18-15.84-4.67-23.94-6.32-.07-.09-.15-.17-.23-.25-.08-.08-.16-.16-.25-.23-1.65-8.13-5.13-15.78-6.3-24.02-1-7.03-2.18-14.93,2.38-20.98.2-.26.32-.56.39-.87,3.16-3.04,6.53-5.68,10.63-7.66,2.52-1.21,5.16-2.11,7.86-2.71-7.78,13.03-9.86,29.24-5.59,43.84ZM663.56,261.08c6.5-2.62,13.17-4.81,19.95-6.58,11.29.67,23.33,7.8,27.01,19,1.59,4.84,1.26,10.57-1.71,14.81-1.16.9-2.21,1.94-3.12,3.1-3.66,2.45-8.76,2.94-12.44.25-3.89-2.84-4.63-9.94-.46-12.91.08-.06.15-.12.22-.17,3.55-.02,3.42-5.76-.33-6.1-7.25-.65-14.55.59-21.24,3.46-6.95,2.98-12.25,7.71-17.38,13.16-5.13,5.45-10.74,9.75-18.63,9.07-6.55-.57-12.42-5.07-14.96-11.11,12.9-10.84,27.47-19.67,43.1-25.98ZM643.34,303.54c3.42-.87,6.36-2.52,9.03-4.59-.3,4.03.16,8.19.7,12.15,1.19,8.83,4.69,16.97,6.5,25.64-4.07,2.25-9.18,2.01-13.54.63-5.68-1.8-10.26-5.94-14.26-10.21-8.43-9.01-15.54-19.81-27.7-24.01.22-.26.41-.55.55-.86,3.54-3.89,7.26-7.61,11.15-11.14,5.28,9.81,16.39,15.23,27.56,12.39ZM601.75,223.09c9.15,13.98,14.07,30.65,13.6,47.32-2.74-6.64-6.47-12.83-11.33-18.25-.69-.77-1.5-1.04-2.27-.95-.77-.08-1.58.18-2.27.95-4.86,5.43-8.59,11.62-11.33,18.25-.47-16.67,4.45-33.34,13.6-47.32ZM587.74,291.15c3.89,3.53,7.62,7.25,11.15,11.14.14.31.33.61.55.86-12.16,4.19-19.27,15-27.7,24.01-4,4.27-8.58,8.41-14.26,10.21-4.35,1.38-9.47,1.62-13.54-.63,1.81-8.67,5.3-16.81,6.5-25.64.53-3.95,1-8.12.7-12.15,2.67,2.07,5.61,3.72,9.03,4.59,11.17,2.84,22.29-2.58,27.56-12.39ZM492.99,273.5c3.68-11.2,15.72-18.33,27.01-19,6.78,1.77,13.45,3.95,19.95,6.58,15.63,6.3,30.19,15.14,43.1,25.98-2.54,6.04-8.41,10.54-14.96,11.11-7.89.69-13.5-3.61-18.63-9.07-5.13-5.46-10.43-10.18-17.38-13.16-6.69-2.87-13.98-4.11-21.24-3.46-3.75.34-3.88,6.08-.33,6.1.07.06.14.12.22.17,4.17,2.97,3.43,10.08-.46,12.91-3.68,2.69-8.78,2.2-12.44-.25-.92-1.16-1.97-2.19-3.12-3.1-2.97-4.23-3.3-9.97-1.71-14.81ZM463.27,338c-2.61-6.52-4.79-13.21-6.56-20.01.67-11.32,7.77-23.4,18.94-27.09,4.83-1.59,10.54-1.26,14.76,1.72.9,1.16,1.93,2.22,3.09,3.13,2.44,3.67,2.93,8.78.25,12.48-2.83,3.9-9.91,4.65-12.87.46-.06-.08-.11-.15-.17-.22-.02-3.56-5.74-3.43-6.08.33-.65,7.28.59,14.6,3.45,21.3,2.98,6.97,7.69,12.29,13.12,17.44,5.44,5.14,9.72,10.77,9.04,18.69-.57,6.57-5.06,12.46-11.08,15.01-10.8-12.94-19.61-27.56-25.89-43.23ZM425.41,400h0c13.94-9.18,30.55-14.12,47.17-13.64-6.61,2.75-12.79,6.49-18.19,11.36-.77.7-1.03,1.51-.95,2.28-.08.77.18,1.58.95,2.28,5.41,4.88,11.58,8.61,18.19,11.36-16.62.48-33.23-4.47-47.17-13.64ZM461.07,400c7.58-6.03,16.59-9.74,26.03-11.82,3.61,4.13,7.42,8.07,11.42,11.82h0c-4,3.75-7.81,7.69-11.42,11.82-9.44-2.08-18.45-5.79-26.03-11.82ZM490.41,507.39c-4.22,2.98-9.94,3.31-14.76,1.72-11.17-3.69-18.27-15.77-18.94-27.09,1.76-6.8,3.94-13.49,6.56-20.01,6.28-15.68,15.09-30.29,25.89-43.23,6.02,2.55,10.51,8.44,11.08,15.01.68,7.92-3.6,13.55-9.04,18.69-5.44,5.14-10.15,10.46-13.12,17.44-2.86,6.71-4.1,14.03-3.45,21.3.34,3.76,6.06,3.89,6.08.33.06-.07.12-.14.17-.22,2.96-4.18,10.04-3.44,12.87.46,2.68,3.7,2.19,8.81-.25,12.48-1.16.92-2.19,1.97-3.09,3.13ZM539.95,538.92c-6.5,2.62-13.17,4.81-19.95,6.58-11.29-.67-23.33-7.8-27.01-19-1.59-4.84-1.26-10.57,1.71-14.81,1.16-.9,2.21-1.94,3.12-3.1,3.66-2.45,8.76-2.94,12.44-.25,3.89,2.84,4.63,9.94.46,12.91-.08.06-.15.12-.22.17-3.55.02-3.42,5.76.33,6.1,7.25.65,14.55-.59,21.24-3.46,6.95-2.98,12.25-7.71,17.38-13.16,5.13-5.45,10.74-9.75,18.63-9.07,6.55.57,12.42,5.07,14.96,11.11-12.9,10.84-27.47,19.67-43.1,25.98ZM560.17,496.46c-3.42.87-6.36,2.52-9.03,4.59.3-4.03-.16-8.19-.7-12.15-1.19-8.83-4.69-16.97-6.5-25.64,4.07-2.25,9.18-2.01,13.54-.63,5.68,1.8,10.26,5.94,14.26,10.21,8.43,9.01,15.54,19.81,27.7,24.01-.22.26-.41.55-.55.86-3.54,3.89-7.26,7.61-11.15,11.14-5.28-9.81-16.39-15.23-27.56-12.39ZM601.75,576.91c-9.15-13.98-14.07-30.65-13.6-47.32,2.74,6.64,6.47,12.83,11.33,18.25.69.77,1.5,1.04,2.27.95.77.08,1.58-.18,2.27-.95,4.86-5.43,8.59-11.62,11.33-18.25.47,16.67-4.45,33.34-13.6,47.32ZM615.77,508.85c-3.89-3.53-7.62-7.25-11.15-11.14-.14-.31-.33-.61-.55-.86,12.16-4.19,19.27-15,27.7-24.01,4-4.27,8.58-8.41,14.26-10.21,4.35-1.38,9.47-1.62,13.54.63-1.81,8.67-5.3,16.81-6.5,25.64-.53,3.95-1,8.12-.7,12.15-2.67-2.07-5.61-3.72-9.03-4.59-11.17-2.84-22.29,2.58-27.56,12.39ZM710.52,526.5c-3.68,11.2-15.72,18.33-27.01,19-6.78-1.77-13.45-3.95-19.95-6.58-15.63-6.3-30.19-15.14-43.1-25.98,2.54-6.04,8.41-10.54,14.96-11.11,7.89-.69,13.5,3.61,18.63,9.07,5.13,5.46,10.43,10.18,17.38,13.16,6.69,2.87,13.98,4.11,21.24,3.46,3.75-.34,3.88-6.08.33-6.1-.07-.06-.14-.12-.22-.17-4.17-2.97-3.43-10.08.46-12.91,3.68-2.69,8.78-2.2,12.44.25.92,1.16,1.97,2.19,3.12,3.1,2.97,4.23,3.3,9.97,1.71,14.81ZM740.24,462c2.61,6.52,4.79,13.21,6.56,20.01-.67,11.32-7.77,23.4-18.94,27.09-4.83,1.59-10.54,1.26-14.76-1.72-.9-1.16-1.93-2.22-3.09-3.13-2.44-3.67-2.93-8.78-.25-12.48,2.83-3.9,9.91-4.65,12.87-.46.06.08.11.15.17.22.02,3.56,5.74,3.43,6.08-.33.65-7.28-.59-14.6-3.45-21.3-2.98-6.97-7.69-12.29-13.12-17.44-5.44-5.14-9.72-10.77-9.04-18.69.57-6.57,5.06-12.46,11.08-15.01,10.8,12.94,19.61,27.56,25.89,43.23ZM716.41,411.82c-3.61-4.13-7.42-8.07-11.42-11.82h0c4-3.75,7.81-7.69,11.42-11.82,9.44,2.08,18.45,5.79,26.03,11.82-7.58,6.03-16.59,9.74-26.03,11.82ZM778.1,400c-13.94,9.18-30.55,14.12-47.17,13.64,6.61-2.75,12.79-6.49,18.19-11.36.77-.7,1.03-1.51.95-2.28.08-.77-.18-1.58-.95-2.28-5.41-4.88-11.58-8.61-18.19-11.36,16.62-.48,33.23,4.47,47.17,13.64h0Z"/>
    <path class="st0" d="M640.48,415.25l1.81,1.03-.08.21c-6.21,9.83-17.09,23.54-37.29,23.54-.47-.02-.94-.04-1.41-.06v-2.97c.88.08,1.76.14,2.67.15,14.93,0,26.25-9.52,34.3-21.9ZM605.37,452.22c-.97-.22-1.78-.74-2.42-1.57-.65-.82-1.14-2.07-1.49-3.75-.35-1.67-.53-3.97-.53-6.88v-40.4c0-12.33-9.71-22.01-19.92-21.89-14.04.19-22.69,15.81-18.9,30.87,4.11,16.36,14.37,24.96,26.72,28.83v-5.68c-11.33-7.76-17.39-23.01-17.04-39.83.12-5.9,4.24-10.67,9.22-10.74,4.85-.05,10.34,4.66,10.4,10.74.12,12.03,0,48.1,0,48.1,0,2.85-.18,5.09-.53,6.74-.35,1.65-.85,2.9-1.49,3.75-.65.85-1.45,1.41-2.42,1.66-.97.25-2.1.38-3.39.38h-2.58v2.37h30.27v-2.37h-2.5c-1.29,0-2.42-.11-3.39-.33ZM572.12,367.51h30.51c12.16-.36,22.13,10.15,23.33,24.1.86,9.96-3.94,26.15-13.76,26.7,1.12-.92,1.67-2.93,1.29-4.57-.84-3.69-3.99-3.95-5.95-2.2-1.47,1.31-1.95,4.66.24,6.65,1.16,1.04,3.17,1.6,5.54,1.6,16.3,0,25.75-17.07,23.31-31.32-2.37-13.85-16.16-26.06-40.17-24.29-8.55,0-11.6,0-16.76,0,16.88-26.35,54.36-17.13,60.73,13.55h1.86l-4.61-26.44h-1.96c.61,3.99-.68,5.18-1.98,5.47-3.06.69-7.8-3.76-9.54-4.8-25.38-16.18-50.48-.08-54.99,9.84-1.34,2.94.1,5.8,2.91,5.71Z"/>
  </g>
</svg>