<?xml version="1.0" encoding="UTF-8"?>
<svg xmlns="http://www.w3.org/2000/svg" version="1.1" xmlns:xlink="http://www.w3.org/1999/xlink" viewBox="0 0 1200 800">
  <!-- Generator: Adobe Illustrator 29.8.2, SVG Export Plug-In . SVG Version: 2.1.1 Build 3)  -->
  <defs>
    <style>
      .st0, .st1 {
        fill: #062800;
      }

      .st2 {
        fill: #fff;
        font-size: 41px;
      }

      .st2, .st3 {
        font-family: DidotLTPro-Roman, 'Didot LT Pro';
      }

      .st3 {
        font-size: 53.75px;
        letter-spacing: .5em;
      }

      .st3, .st4 {
        fill: #231f20;
      }

      .st1, .st5 {
        stroke: #1d1d1b;
        stroke-miterlimit: 10;
      }

      .st5 {
        fill: #9c9b9b;
      }

      .st6 {
        fill: #f4f4f4;
      }
    </style>
    <path id="path" d="M464.43-312.05c-133.86-74.87-181.68-244.08-106.81-377.94,74.87-133.86,244.08-181.68,377.95-106.81,133.86,74.87,181.68,244.08,106.81,377.94-74.87,133.86-244.08,181.68-377.94,106.81Z"/>
    <path id="path1" d="M468.14,30.84c-133.86-74.87-181.68-244.08-106.81-377.94,74.87-133.86,244.08-181.68,377.95-106.81,133.86,74.87,181.68,244.08,106.81,377.94-74.87,133.86-244.08,181.68-377.94,106.81Z"/>
  </defs>
  <g id="BG">
    <rect class="st1" y="-2823.25" width="1200" height="800"/>
    <rect class="st4" x="0" y="-954.87" width="1200" height="800"/>
  </g>
  <g id="Layer_1">
    <text class="st3" transform="translate(41.85 625.16) scale(.86 .9)"><tspan x="0" y="0">STYLED BY CAT PHILLIPS</tspan></text>
    <text>
      <textPath startOffset="18.05%" xlink:href="#path"><tspan class="st2"><tspan x="0" y="0" xml:space="preserve"> STYLED BY CAT PHILLIPS• LITTLE ROCK.AR• </tspan></tspan>
      </textPath></text>
    <path class="st6" d="M771.54-2365.99l8.03,3.88-.38.78c-27.51,37.03-75.69,88.68-165.17,88.68-2.09-.06-4.17-.15-6.26-.24v-11.17c3.88.31,7.81.51,11.83.57,66.15,0,116.28-35.88,151.95-82.5ZM616.01-2226.7c-4.29-.83-7.87-2.8-10.73-5.9-2.86-3.1-5.06-7.81-6.61-14.13-1.56-6.31-2.33-14.96-2.33-25.92v-152.2c0-46.44-43.03-82.92-88.24-82.47-62.18.72-100.51,59.57-83.72,116.31,18.21,61.64,63.66,94.03,118.35,108.61v-21.41c-50.17-29.24-77.03-86.7-75.48-150.08.55-22.25,18.79-40.2,40.85-40.45,21.48-.19,45.79,17.55,46.06,40.45.52,45.31,0,181.24,0,181.24,0,10.73-.78,19.19-2.33,25.38-1.55,6.2-3.75,10.91-6.61,14.13-2.87,3.22-6.44,5.31-10.73,6.26-4.29.96-9.29,1.43-15.02,1.43h-11.44v8.94h134.08v-8.94h-11.09c-5.72,0-10.72-.42-15.02-1.25ZM468.74-2545.84h135.12c53.85-1.37,98.01,38.25,103.34,90.81,3.81,37.52-17.46,98.53-60.93,100.59,4.98-3.47,7.38-11.05,5.73-17.23-3.72-13.89-17.66-14.88-26.34-8.3-6.5,4.92-8.63,17.55,1.06,25.07,5.14,3.94,14.05,6.02,24.56,6.02,72.21,0,114.05-64.3,103.24-117.99-10.49-52.17-71.6-98.19-177.93-91.51-37.87,0-51.39,0-74.26,0,74.77-99.27,240.78-64.53,269,51.06h8.25l-20.44-99.63h-8.68c2.68,15.02-3.02,19.53-8.76,20.63-13.55,2.58-34.56-14.15-42.27-18.09-112.41-60.97-223.59-.31-243.59,37.09-5.93,11.09.43,21.84,12.91,21.5Z"/>
    <path class="st0" d="M771.54-1437.45l8.03,3.88-.38.78c-27.51,37.03-75.69,88.68-165.17,88.68-2.09-.06-4.17-.15-6.26-.24v-11.17c3.88.31,7.81.51,11.83.57,66.15,0,116.28-35.88,151.95-82.5ZM616.01-1298.16c-4.29-.83-7.87-2.8-10.73-5.9-2.86-3.1-5.06-7.81-6.61-14.13-1.56-6.31-2.33-14.96-2.33-25.92v-152.2c0-46.44-43.03-82.92-88.24-82.47-62.18.72-100.51,59.57-83.72,116.31,18.21,61.64,63.66,94.03,118.35,108.61v-21.41c-50.17-29.24-77.03-86.7-75.48-150.08.55-22.25,18.79-40.2,40.85-40.45,21.48-.19,45.79,17.55,46.06,40.45.52,45.31,0,181.24,0,181.24,0,10.73-.78,19.19-2.33,25.38-1.55,6.2-3.75,10.91-6.61,14.13-2.87,3.22-6.44,5.31-10.73,6.26-4.29.96-9.29,1.43-15.02,1.43h-11.44v8.94h134.08v-8.94h-11.09c-5.72,0-10.72-.42-15.02-1.25ZM468.74-1617.29h135.12c53.85-1.37,98.01,38.25,103.34,90.81,3.81,37.52-17.46,98.53-60.93,100.59,4.98-3.47,7.38-11.05,5.73-17.23-3.72-13.89-17.66-14.88-26.34-8.3-6.5,4.92-8.63,17.55,1.06,25.07,5.14,3.94,14.05,6.02,24.56,6.02,72.21,0,114.05-64.3,103.24-117.99-10.49-52.17-71.6-98.19-177.93-91.51-37.87,0-51.39,0-74.26,0,74.77-99.27,240.78-64.53,269,51.06h8.25l-20.44-99.63h-8.68c2.68,15.02-3.02,19.53-8.76,20.63-13.55,2.58-34.56-14.15-42.27-18.09-112.41-60.97-223.59-.31-243.59,37.09-5.93,11.09.43,21.84,12.91,21.5Z"/>
    <path class="st5" d="M747.6-495.26l6.91,3.34-.32.67c-23.67,31.86-65.12,76.31-142.12,76.31-1.79-.05-3.59-.13-5.38-.21v-9.61c3.34.27,6.72.44,10.18.49,56.92,0,100.05-30.87,130.74-70.98ZM613.77-375.41c-3.69-.72-6.77-2.41-9.23-5.07-2.46-2.66-4.36-6.72-5.69-12.16-1.34-5.43-2.01-12.87-2.01-22.31v-130.96c0-39.96-37.02-71.35-75.93-70.96-53.5.62-86.48,51.26-72.03,100.08,15.66,53.03,54.77,80.91,101.84,93.45v-18.42c-43.17-25.16-66.28-74.6-64.95-129.14.47-19.14,16.17-34.59,35.15-34.81,18.48-.17,39.4,15.1,39.63,34.81.45,38.98,0,155.95,0,155.95,0,9.23-.67,16.51-2,21.84-1.33,5.34-3.23,9.39-5.69,12.16-2.47,2.77-5.54,4.57-9.23,5.38-3.69.82-8,1.23-12.92,1.23h-9.85v7.69h115.37v-7.69h-9.54c-4.92,0-9.22-.36-12.92-1.08ZM487.06-650.01h116.27c46.34-1.18,84.33,32.91,88.92,78.13,3.27,32.28-15.02,84.78-52.43,86.56,4.29-2.99,6.35-9.51,4.93-14.83-3.2-11.95-15.2-12.8-22.67-7.14-5.59,4.24-7.43,15.1.91,21.57,4.42,3.39,12.09,5.18,21.13,5.18,62.13,0,98.13-55.32,88.84-101.52-9.03-44.89-61.61-84.49-153.1-78.74-32.59,0-44.22,0-63.9,0,64.34-85.41,207.18-55.53,231.46,43.94h7.1l-17.59-85.72h-7.47c2.31,12.92-2.6,16.81-7.54,17.75-11.66,2.22-29.74-12.18-36.37-15.57-96.72-52.46-192.39-.27-209.59,31.91-5.1,9.54.37,18.79,11.11,18.5Z"/>
    <path d="M747.6,379.37l6.91,3.34-.32.67c-23.67,31.86-65.12,76.31-142.12,76.31-1.79-.05-3.59-.13-5.38-.21v-9.61c3.34.27,6.72.44,10.18.49,56.92,0,100.05-30.87,130.74-70.98ZM613.77,499.22c-3.69-.72-6.77-2.41-9.23-5.07-2.46-2.66-4.36-6.72-5.69-12.16-1.34-5.43-2.01-12.87-2.01-22.31v-130.96c0-39.96-37.02-71.35-75.93-70.96-53.5.62-86.48,51.26-72.03,100.08,15.66,53.03,54.77,80.91,101.84,93.45v-18.42c-43.17-25.16-66.28-74.6-64.95-129.14.47-19.14,16.17-34.59,35.15-34.81,18.48-.17,39.4,15.1,39.63,34.81.45,38.98,0,155.95,0,155.95,0,9.23-.67,16.51-2,21.84-1.33,5.34-3.23,9.39-5.69,12.16-2.47,2.77-5.54,4.57-9.23,5.38-3.69.82-8,1.23-12.92,1.23h-9.85v7.69h115.37v-7.69h-9.54c-4.92,0-9.22-.36-12.92-1.08ZM487.06,224.62h116.27c46.34-1.18,84.33,32.91,88.92,78.13,3.27,32.28-15.02,84.78-52.43,86.56,4.29-2.99,6.35-9.51,4.93-14.83-3.2-11.95-15.2-12.8-22.67-7.14-5.59,4.24-7.43,15.1.91,21.57,4.42,3.39,12.09,5.18,21.13,5.18,62.13,0,98.13-55.32,88.84-101.52-9.03-44.89-61.61-84.49-153.1-78.74-32.59,0-44.22,0-63.9,0,64.34-85.41,207.18-55.53,231.46,43.94h7.1l-17.59-85.72h-7.47c2.31,12.92-2.6,16.81-7.54,17.75-11.66,2.22-29.74-12.18-36.37-15.57-96.72-52.46-192.39-.27-209.59,31.91-5.1,9.54.37,18.79,11.11,18.5Z"/>
    <text/>
    <text>
      <textPath xlink:href="#path1"><tspan class="st2"><tspan x="0" y="0" xml:space="preserve">•  </tspan></tspan>
      </textPath></text>
  </g>
</svg>