<svg xmlns="http://www.w3.org/2000/svg" xmlns:xlink="http://www.w3.org/1999/xlink" width="500" zoomAndPan="magnify" viewBox="0 0 375 374.999991" height="500" preserveAspectRatio="xMidYMid meet" version="1.0"><path fill="#000000" d="M 82.117188 283.722656 L 101.996094 263.84375 C 81.988281 252.691406 68.1875 233.246094 64.234375 210.894531 L 128.167969 210.894531 L 133.8125 216.535156 L 141.578125 224.304688 L 154.992188 237.71875 L 154.992188 316.40625 L 182.335938 327.996094 L 182.335938 226.390625 L 166.839844 210.894531 L 154.949219 199.046875 L 153.125 197.222656 L 182.292969 168.054688 L 182.292969 105.425781 L 154.949219 105.425781 L 154.949219 156.683594 L 133.765625 177.863281 L 128.125 183.507812 L 63.019531 183.507812 L 63.019531 105.382812 L 35.675781 105.382812 L 35.675781 197.484375 C 35.675781 201.996094 35.980469 206.511719 36.546875 210.894531 C 40.453125 240.667969 57.160156 267.273438 82.117188 283.722656 Z M 82.117188 283.722656 " fill-opacity="1" fill-rule="nonzero"/><path fill="#000000" d="M 311.980469 132.726562 L 311.980469 183.550781 L 220.050781 183.550781 L 220.050781 105.382812 L 192.707031 105.382812 L 192.707031 327.996094 L 220.050781 316.40625 L 220.050781 210.851562 L 310.808594 210.851562 C 306.8125 233.203125 293.011719 252.691406 273.046875 263.800781 L 292.925781 283.679688 C 317.882812 267.230469 334.59375 240.625 338.453125 210.851562 C 339.019531 206.421875 339.324219 201.953125 339.324219 197.4375 L 339.324219 105.382812 L 311.980469 105.382812 Z M 311.980469 132.726562 " fill-opacity="1" fill-rule="nonzero"/><path fill="#000000" d="M 275.476562 69.011719 C 237.238281 69.011719 204.035156 45.660156 187.5 11.5 C 170.964844 45.660156 137.804688 69.011719 99.523438 69.011719 C 75.171875 69.011719 52.90625 59.546875 35.675781 43.878906 L 35.675781 92.492188 L 339.324219 92.492188 L 339.324219 43.878906 C 322.09375 59.546875 299.78125 69.011719 275.476562 69.011719 Z M 275.476562 69.011719 " fill-opacity="1" fill-rule="nonzero"/></svg>