<svg xmlns="http://www.w3.org/2000/svg" xmlns:xlink="http://www.w3.org/1999/xlink" width="500" zoomAndPan="magnify" viewBox="0 0 375 374.999991" height="500" preserveAspectRatio="xMidYMid meet" version="1.0"><defs><g/></defs><path fill="#000000" d="M 118.753906 231.324219 L 130.363281 219.714844 C 118.675781 213.203125 110.617188 201.847656 108.308594 188.792969 L 145.644531 188.792969 L 148.941406 192.085938 L 153.476562 196.625 L 161.308594 204.457031 L 161.308594 250.410156 L 177.277344 257.179688 L 177.277344 197.839844 L 168.230469 188.792969 L 161.285156 181.871094 L 160.21875 180.808594 L 177.253906 163.773438 L 177.253906 127.199219 L 161.285156 127.199219 L 161.285156 157.132812 L 145.621094 172.796875 L 107.601562 172.796875 L 107.601562 127.171875 L 91.632812 127.171875 L 91.632812 180.960938 C 91.632812 183.597656 91.808594 186.234375 92.136719 188.792969 C 94.417969 206.179688 104.179688 221.71875 118.753906 231.324219 Z M 118.753906 231.324219 " fill-opacity="1" fill-rule="nonzero"/><path fill="#000000" d="M 252.992188 143.140625 L 252.992188 172.824219 L 199.304688 172.824219 L 199.304688 127.171875 L 183.335938 127.171875 L 183.335938 257.179688 L 199.304688 250.410156 L 199.304688 188.765625 L 252.308594 188.765625 C 249.976562 201.820312 241.914062 213.203125 230.253906 219.691406 L 241.863281 231.300781 C 256.4375 221.691406 266.195312 206.15625 268.453125 188.765625 C 268.78125 186.183594 268.960938 183.570312 268.960938 180.933594 L 268.960938 127.171875 L 252.992188 127.171875 Z M 252.992188 143.140625 " fill-opacity="1" fill-rule="nonzero"/><path fill="#000000" d="M 231.675781 105.933594 C 209.34375 105.933594 189.953125 92.296875 180.296875 72.347656 C 170.636719 92.296875 151.273438 105.933594 128.917969 105.933594 C 114.695312 105.933594 101.695312 100.40625 91.632812 91.257812 L 91.632812 119.644531 L 268.960938 119.644531 L 268.960938 91.257812 C 258.898438 100.40625 245.867188 105.933594 231.675781 105.933594 Z M 231.675781 105.933594 " fill-opacity="1" fill-rule="nonzero"/><g fill="#000000" fill-opacity="1"><g transform="translate(60.058646, 296.319501)"><g><path d="M 17.640625 -4.90625 C 18.222656 -4.007812 18.734375 -3.203125 19.171875 -2.484375 C 19.609375 -1.773438 20.054688 -1.203125 20.515625 -0.765625 C 20.972656 -0.335938 21.554688 -0.0820312 22.265625 0 L 17.640625 0 C 17.160156 0 16.84375 -0.0390625 16.6875 -0.125 C 16.539062 -0.207031 16.296875 -0.503906 15.953125 -1.015625 L 7.140625 -14.78125 L 13.90625 -24.28125 C 14.96875 -25.726562 15.46875 -26.859375 15.40625 -27.671875 C 15.351562 -28.484375 14.796875 -28.890625 13.734375 -28.890625 C 14.992188 -28.890625 16.082031 -28.890625 17 -28.890625 C 17.925781 -28.890625 19.007812 -28.890625 20.25 -28.890625 C 19.289062 -28.804688 18.359375 -28.46875 17.453125 -27.875 C 16.546875 -27.289062 15.472656 -26.132812 14.234375 -24.40625 L 7.515625 -15 L 9.03125 -15 C 9.644531 -15 10.144531 -14.90625 10.53125 -14.71875 C 10.925781 -14.539062 11.265625 -14.28125 11.546875 -13.9375 Z M 7.0625 -3.984375 C 7.0625 -2.867188 7.191406 -2.046875 7.453125 -1.515625 C 7.722656 -0.984375 8.085938 -0.617188 8.546875 -0.421875 C 9.003906 -0.222656 9.539062 -0.0820312 10.15625 0 L 0.5 0 C 1.113281 -0.0820312 1.648438 -0.222656 2.109375 -0.421875 C 2.578125 -0.617188 2.941406 -0.984375 3.203125 -1.515625 C 3.472656 -2.046875 3.609375 -2.867188 3.609375 -3.984375 L 3.609375 -24.859375 C 3.609375 -26.015625 3.472656 -26.859375 3.203125 -27.390625 C 2.941406 -27.921875 2.578125 -28.28125 2.109375 -28.46875 C 1.648438 -28.664062 1.113281 -28.804688 0.5 -28.890625 L 10.15625 -28.890625 C 9.539062 -28.804688 9.003906 -28.664062 8.546875 -28.46875 C 8.085938 -28.28125 7.722656 -27.921875 7.453125 -27.390625 C 7.191406 -26.859375 7.0625 -26.015625 7.0625 -24.859375 Z M 7.0625 -3.984375 "/></g></g></g><g fill="#000000" fill-opacity="1"><g transform="translate(82.15064, 296.319501)"><g><path d="M 7.0625 -3.984375 C 7.0625 -2.867188 7.191406 -2.046875 7.453125 -1.515625 C 7.722656 -0.984375 8.085938 -0.617188 8.546875 -0.421875 C 9.003906 -0.222656 9.539062 -0.0820312 10.15625 0 L 0.5 0 C 1.113281 -0.0820312 1.648438 -0.222656 2.109375 -0.421875 C 2.578125 -0.617188 2.941406 -0.984375 3.203125 -1.515625 C 3.472656 -2.046875 3.609375 -2.867188 3.609375 -3.984375 L 3.609375 -24.859375 C 3.609375 -26.015625 3.472656 -26.859375 3.203125 -27.390625 C 2.941406 -27.921875 2.578125 -28.28125 2.109375 -28.46875 C 1.648438 -28.664062 1.113281 -28.804688 0.5 -28.890625 L 10.15625 -28.890625 C 9.539062 -28.804688 9.003906 -28.664062 8.546875 -28.46875 C 8.085938 -28.28125 7.722656 -27.921875 7.453125 -27.390625 C 7.191406 -26.859375 7.0625 -26.015625 7.0625 -24.859375 Z M 7.0625 -3.984375 "/></g></g></g><g fill="#000000" fill-opacity="1"><g transform="translate(92.860638, 296.319501)"><g><path d="M 17.34375 -4.90625 C 17.957031 -4.007812 18.484375 -3.203125 18.921875 -2.484375 C 19.359375 -1.773438 19.804688 -1.203125 20.265625 -0.765625 C 20.722656 -0.335938 21.304688 -0.0820312 22.015625 0 L 17.390625 0 C 16.910156 0 16.59375 -0.0390625 16.4375 -0.125 C 16.289062 -0.207031 16.046875 -0.503906 15.703125 -1.015625 L 9.65625 -10.671875 C 9.632812 -10.671875 9.597656 -10.671875 9.546875 -10.671875 C 9.503906 -10.671875 9.472656 -10.671875 9.453125 -10.671875 L 7.0625 -10.671875 L 7.0625 -3.984375 C 7.0625 -2.867188 7.191406 -2.046875 7.453125 -1.515625 C 7.722656 -0.984375 8.085938 -0.617188 8.546875 -0.421875 C 9.003906 -0.222656 9.539062 -0.0820312 10.15625 0 L 0.5 0 C 1.113281 -0.0820312 1.648438 -0.222656 2.109375 -0.421875 C 2.578125 -0.617188 2.941406 -0.984375 3.203125 -1.515625 C 3.472656 -2.046875 3.609375 -2.867188 3.609375 -3.984375 L 3.609375 -24.859375 C 3.609375 -26.015625 3.472656 -26.859375 3.203125 -27.390625 C 2.941406 -27.921875 2.578125 -28.28125 2.109375 -28.46875 C 1.648438 -28.664062 1.113281 -28.804688 0.5 -28.890625 L 9.453125 -28.890625 C 11.523438 -28.890625 13.273438 -28.503906 14.703125 -27.734375 C 16.128906 -26.972656 17.234375 -25.972656 18.015625 -24.734375 C 18.796875 -23.503906 19.265625 -22.175781 19.421875 -20.75 C 19.578125 -19.320312 19.410156 -17.925781 18.921875 -16.5625 C 18.429688 -15.207031 17.617188 -14.023438 16.484375 -13.015625 C 15.347656 -12.015625 13.882812 -11.316406 12.09375 -10.921875 C 12.90625 -10.835938 13.535156 -10.488281 13.984375 -9.875 Z M 9.453125 -11.046875 C 10.828125 -11.046875 11.972656 -11.460938 12.890625 -12.296875 C 13.816406 -13.140625 14.523438 -14.226562 15.015625 -15.5625 C 15.503906 -16.894531 15.753906 -18.300781 15.765625 -19.78125 C 15.785156 -21.269531 15.578125 -22.675781 15.140625 -24 C 14.703125 -25.332031 14.03125 -26.414062 13.125 -27.25 C 12.21875 -28.09375 11.078125 -28.515625 9.703125 -28.515625 L 9.359375 -28.515625 C 8.804688 -28.515625 8.359375 -28.4375 8.015625 -28.28125 C 7.679688 -28.132812 7.4375 -27.816406 7.28125 -27.328125 C 7.132812 -26.835938 7.0625 -26.070312 7.0625 -25.03125 L 7.0625 -11.046875 Z M 9.453125 -11.046875 "/></g></g></g><g fill="#000000" fill-opacity="1"><g transform="translate(115.036631, 296.319501)"><g><path d="M 17.640625 -4.90625 C 18.222656 -4.007812 18.734375 -3.203125 19.171875 -2.484375 C 19.609375 -1.773438 20.054688 -1.203125 20.515625 -0.765625 C 20.972656 -0.335938 21.554688 -0.0820312 22.265625 0 L 17.640625 0 C 17.160156 0 16.84375 -0.0390625 16.6875 -0.125 C 16.539062 -0.207031 16.296875 -0.503906 15.953125 -1.015625 L 7.140625 -14.78125 L 13.90625 -24.28125 C 14.96875 -25.726562 15.46875 -26.859375 15.40625 -27.671875 C 15.351562 -28.484375 14.796875 -28.890625 13.734375 -28.890625 C 14.992188 -28.890625 16.082031 -28.890625 17 -28.890625 C 17.925781 -28.890625 19.007812 -28.890625 20.25 -28.890625 C 19.289062 -28.804688 18.359375 -28.46875 17.453125 -27.875 C 16.546875 -27.289062 15.472656 -26.132812 14.234375 -24.40625 L 7.515625 -15 L 9.03125 -15 C 9.644531 -15 10.144531 -14.90625 10.53125 -14.71875 C 10.925781 -14.539062 11.265625 -14.28125 11.546875 -13.9375 Z M 7.0625 -3.984375 C 7.0625 -2.867188 7.191406 -2.046875 7.453125 -1.515625 C 7.722656 -0.984375 8.085938 -0.617188 8.546875 -0.421875 C 9.003906 -0.222656 9.539062 -0.0820312 10.15625 0 L 0.5 0 C 1.113281 -0.0820312 1.648438 -0.222656 2.109375 -0.421875 C 2.578125 -0.617188 2.941406 -0.984375 3.203125 -1.515625 C 3.472656 -2.046875 3.609375 -2.867188 3.609375 -3.984375 L 3.609375 -24.859375 C 3.609375 -26.015625 3.472656 -26.859375 3.203125 -27.390625 C 2.941406 -27.921875 2.578125 -28.28125 2.109375 -28.46875 C 1.648438 -28.664062 1.113281 -28.804688 0.5 -28.890625 L 10.15625 -28.890625 C 9.539062 -28.804688 9.003906 -28.664062 8.546875 -28.46875 C 8.085938 -28.28125 7.722656 -27.921875 7.453125 -27.390625 C 7.191406 -26.859375 7.0625 -26.015625 7.0625 -24.859375 Z M 7.0625 -3.984375 "/></g></g></g><g fill="#000000" fill-opacity="1"><g transform="translate(136.918626, 296.319501)"><g><path d="M 5.71875 -24.03125 C 5.71875 -22.957031 6.023438 -21.957031 6.640625 -21.03125 C 7.253906 -20.113281 8.039062 -19.226562 9 -18.375 C 9.96875 -17.519531 11 -16.65625 12.09375 -15.78125 C 13.1875 -14.914062 14.210938 -14.015625 15.171875 -13.078125 C 16.140625 -12.140625 16.929688 -11.125 17.546875 -10.03125 C 18.171875 -8.945312 18.484375 -7.742188 18.484375 -6.421875 C 18.484375 -5.023438 18.128906 -3.800781 17.421875 -2.75 C 16.722656 -1.695312 15.78125 -0.875 14.59375 -0.28125 C 13.40625 0.300781 12.082031 0.59375 10.625 0.59375 C 9.25 0.59375 7.957031 0.394531 6.75 0 C 5.550781 -0.394531 4.46875 -0.863281 3.5 -1.40625 C 2.539062 -1.945312 1.710938 -2.457031 1.015625 -2.9375 L 2.765625 -10.796875 C 2.597656 -8.773438 2.84375 -6.925781 3.5 -5.25 C 4.164062 -3.570312 5.113281 -2.226562 6.34375 -1.21875 C 7.570312 -0.207031 9 0.296875 10.625 0.296875 C 11.832031 0.296875 12.875 -0.109375 13.75 -0.921875 C 14.632812 -1.734375 15.078125 -3.117188 15.078125 -5.078125 C 15.078125 -6.316406 14.769531 -7.4375 14.15625 -8.4375 C 13.539062 -9.445312 12.75 -10.390625 11.78125 -11.265625 C 10.8125 -12.148438 9.78125 -13.015625 8.6875 -13.859375 C 7.601562 -14.703125 6.578125 -15.5625 5.609375 -16.4375 C 4.640625 -17.320312 3.847656 -18.273438 3.234375 -19.296875 C 2.617188 -20.316406 2.3125 -21.457031 2.3125 -22.71875 C 2.3125 -24.257812 2.695312 -25.523438 3.46875 -26.515625 C 4.238281 -27.515625 5.234375 -28.242188 6.453125 -28.703125 C 7.671875 -29.171875 8.953125 -29.40625 10.296875 -29.40625 C 11.210938 -29.40625 12.144531 -29.289062 13.09375 -29.0625 C 14.050781 -28.84375 14.914062 -28.570312 15.6875 -28.25 C 16.457031 -27.925781 17.050781 -27.640625 17.46875 -27.390625 L 16.25 -19.3125 C 16.25 -20.96875 16.050781 -22.53125 15.65625 -24 C 15.269531 -25.46875 14.632812 -26.671875 13.75 -27.609375 C 12.875 -28.546875 11.691406 -29.015625 10.203125 -29.015625 C 8.941406 -29.015625 7.878906 -28.570312 7.015625 -27.6875 C 6.148438 -26.8125 5.71875 -25.59375 5.71875 -24.03125 Z M 5.71875 -24.03125 "/></g></g></g><g fill="#000000" fill-opacity="1"><g transform="translate(156.40662, 296.319501)"><g><path d="M 11.34375 -0.375 C 12.6875 -0.375 13.769531 -0.617188 14.59375 -1.109375 C 15.414062 -1.597656 16.054688 -2.195312 16.515625 -2.90625 C 16.984375 -3.625 17.304688 -4.328125 17.484375 -5.015625 C 17.671875 -5.703125 17.765625 -6.242188 17.765625 -6.640625 L 17.71875 -0.046875 L 0 -0.046875 C 0.613281 -0.128906 1.148438 -0.257812 1.609375 -0.4375 C 2.078125 -0.625 2.441406 -0.988281 2.703125 -1.53125 C 2.972656 -2.082031 3.109375 -2.914062 3.109375 -4.03125 L 3.109375 -24.859375 C 3.109375 -26.015625 2.972656 -26.859375 2.703125 -27.390625 C 2.441406 -27.921875 2.078125 -28.28125 1.609375 -28.46875 C 1.148438 -28.664062 0.613281 -28.804688 0 -28.890625 L 17.71875 -28.890625 L 17.765625 -22.296875 C 17.765625 -22.660156 17.671875 -23.1875 17.484375 -23.875 C 17.304688 -24.5625 16.984375 -25.257812 16.515625 -25.96875 C 16.054688 -26.6875 15.414062 -27.289062 14.59375 -27.78125 C 13.769531 -28.269531 12.6875 -28.515625 11.34375 -28.515625 L 8.234375 -28.515625 C 7.390625 -28.515625 6.894531 -28.253906 6.75 -27.734375 C 6.613281 -27.222656 6.546875 -26.28125 6.546875 -24.90625 L 6.546875 -15.203125 C 8.398438 -15.253906 9.800781 -15.398438 10.75 -15.640625 C 11.707031 -15.878906 12.375 -16.300781 12.75 -16.90625 C 13.125 -17.507812 13.367188 -18.382812 13.484375 -19.53125 L 13.484375 -10.671875 C 13.367188 -11.816406 13.125 -12.691406 12.75 -13.296875 C 12.375 -13.898438 11.707031 -14.316406 10.75 -14.546875 C 9.800781 -14.785156 8.398438 -14.921875 6.546875 -14.953125 L 6.546875 -3.984375 C 6.546875 -2.617188 6.613281 -1.675781 6.75 -1.15625 C 6.894531 -0.632812 7.390625 -0.375 8.234375 -0.375 Z M 11.34375 -0.375 "/></g></g></g><g fill="#000000" fill-opacity="1"><g transform="translate(175.474616, 296.319501)"><g><path d="M 14.703125 -28.890625 L 22.09375 -28.890625 C 21.25 -28.804688 20.53125 -28.609375 19.9375 -28.296875 C 19.351562 -27.992188 18.820312 -27.484375 18.34375 -26.765625 C 17.875 -26.054688 17.390625 -25.070312 16.890625 -23.8125 L 11.96875 -11.125 L 11.96875 -5.59375 C 11.96875 -3.882812 12.21875 -2.609375 12.71875 -1.765625 C 13.226562 -0.921875 14 -0.332031 15.03125 0 L 5.328125 0 C 6.398438 -0.332031 7.1875 -0.921875 7.6875 -1.765625 C 8.1875 -2.609375 8.4375 -3.882812 8.4375 -5.59375 L 8.4375 -11.171875 L 3.65625 -23.390625 C 3.125 -24.710938 2.644531 -25.765625 2.21875 -26.546875 C 1.800781 -27.328125 1.328125 -27.898438 0.796875 -28.265625 C 0.265625 -28.628906 -0.421875 -28.835938 -1.265625 -28.890625 L 8.53125 -28.890625 C 7.207031 -28.804688 6.441406 -28.445312 6.234375 -27.8125 C 6.023438 -27.1875 6.160156 -26.257812 6.640625 -25.03125 L 11.796875 -11.546875 L 16.5 -23.8125 C 17.144531 -25.519531 17.382812 -26.769531 17.21875 -27.5625 C 17.050781 -28.363281 16.210938 -28.804688 14.703125 -28.890625 Z M 14.703125 -28.890625 "/></g></g><g transform="translate(196.348615, 296.319501)"><g/></g></g><g fill="#000000" fill-opacity="1"><g transform="translate(205.882619, 296.319501)"><g><path d="M 20.578125 -3.984375 C 20.578125 -2.867188 20.707031 -2.046875 20.96875 -1.515625 C 21.238281 -0.984375 21.597656 -0.617188 22.046875 -0.421875 C 22.492188 -0.222656 23.023438 -0.0820312 23.640625 0 L 13.984375 0 C 14.597656 -0.0820312 15.132812 -0.222656 15.59375 -0.421875 C 16.0625 -0.617188 16.425781 -0.984375 16.6875 -1.515625 C 16.957031 -2.046875 17.09375 -2.867188 17.09375 -3.984375 L 17.09375 -15.03125 L 7.0625 -15.03125 L 7.0625 -3.984375 C 7.0625 -2.867188 7.191406 -2.046875 7.453125 -1.515625 C 7.722656 -0.984375 8.085938 -0.617188 8.546875 -0.421875 C 9.003906 -0.222656 9.539062 -0.0820312 10.15625 0 L 0.5 0 C 1.113281 -0.0820312 1.648438 -0.222656 2.109375 -0.421875 C 2.578125 -0.617188 2.941406 -0.984375 3.203125 -1.515625 C 3.472656 -2.046875 3.609375 -2.867188 3.609375 -3.984375 L 3.609375 -24.859375 C 3.609375 -26.015625 3.472656 -26.859375 3.203125 -27.390625 C 2.941406 -27.921875 2.578125 -28.28125 2.109375 -28.46875 C 1.648438 -28.664062 1.113281 -28.804688 0.5 -28.890625 L 10.15625 -28.890625 C 9.539062 -28.804688 9.003906 -28.664062 8.546875 -28.46875 C 8.085938 -28.28125 7.722656 -27.921875 7.453125 -27.390625 C 7.191406 -26.859375 7.0625 -26.015625 7.0625 -24.859375 L 7.0625 -15.375 L 17.09375 -15.375 L 17.09375 -24.859375 C 17.09375 -26.015625 16.957031 -26.859375 16.6875 -27.390625 C 16.425781 -27.921875 16.0625 -28.28125 15.59375 -28.46875 C 15.132812 -28.664062 14.597656 -28.804688 13.984375 -28.890625 L 23.640625 -28.890625 C 23.023438 -28.804688 22.492188 -28.664062 22.046875 -28.46875 C 21.597656 -28.28125 21.238281 -27.921875 20.96875 -27.390625 C 20.707031 -26.859375 20.578125 -26.015625 20.578125 -24.859375 Z M 20.578125 -3.984375 "/></g></g></g><g fill="#000000" fill-opacity="1"><g transform="translate(229.318618, 296.319501)"><g><path d="M 12.09375 -29.53125 C 13.882812 -29.53125 15.457031 -29.109375 16.8125 -28.265625 C 18.175781 -27.421875 19.304688 -26.28125 20.203125 -24.84375 C 21.097656 -23.40625 21.769531 -21.796875 22.21875 -20.015625 C 22.664062 -18.234375 22.890625 -16.390625 22.890625 -14.484375 C 22.890625 -12.585938 22.664062 -10.742188 22.21875 -8.953125 C 21.769531 -7.160156 21.097656 -5.546875 20.203125 -4.109375 C 19.304688 -2.679688 18.175781 -1.539062 16.8125 -0.6875 C 15.457031 0.164062 13.882812 0.59375 12.09375 0.59375 C 10.300781 0.59375 8.722656 0.164062 7.359375 -0.6875 C 6.003906 -1.539062 4.878906 -2.679688 3.984375 -4.109375 C 3.085938 -5.546875 2.414062 -7.160156 1.96875 -8.953125 C 1.519531 -10.742188 1.296875 -12.585938 1.296875 -14.484375 C 1.296875 -16.390625 1.519531 -18.234375 1.96875 -20.015625 C 2.414062 -21.796875 3.085938 -23.40625 3.984375 -24.84375 C 4.878906 -26.28125 6.003906 -27.421875 7.359375 -28.265625 C 8.722656 -29.109375 10.300781 -29.53125 12.09375 -29.53125 Z M 12.09375 0.296875 C 13.269531 0.296875 14.289062 -0.113281 15.15625 -0.9375 C 16.03125 -1.769531 16.753906 -2.890625 17.328125 -4.296875 C 17.898438 -5.710938 18.328125 -7.296875 18.609375 -9.046875 C 18.890625 -10.796875 19.019531 -12.601562 19 -14.46875 C 18.988281 -16.332031 18.828125 -18.144531 18.515625 -19.90625 C 18.210938 -21.664062 17.773438 -23.242188 17.203125 -24.640625 C 16.628906 -26.046875 15.914062 -27.160156 15.0625 -27.984375 C 14.207031 -28.816406 13.21875 -29.234375 12.09375 -29.234375 C 10.976562 -29.234375 9.992188 -28.816406 9.140625 -27.984375 C 8.285156 -27.160156 7.566406 -26.046875 6.984375 -24.640625 C 6.410156 -23.242188 5.976562 -21.664062 5.6875 -19.90625 C 5.394531 -18.144531 5.238281 -16.332031 5.21875 -14.46875 C 5.207031 -12.601562 5.332031 -10.796875 5.59375 -9.046875 C 5.863281 -7.296875 6.285156 -5.710938 6.859375 -4.296875 C 7.441406 -2.890625 8.164062 -1.769531 9.03125 -0.9375 C 9.894531 -0.113281 10.914062 0.296875 12.09375 0.296875 Z M 12.09375 0.296875 "/></g></g></g><g fill="#000000" fill-opacity="1"><g transform="translate(253.342615, 296.319501)"><g><path d="M 17.296875 -28.890625 L 23.8125 -28.890625 C 22.914062 -28.753906 22.179688 -28.132812 21.609375 -27.03125 C 21.035156 -25.925781 20.75 -24.519531 20.75 -22.8125 L 20.75 -8.609375 C 20.78125 -6.566406 20.367188 -4.859375 19.515625 -3.484375 C 18.660156 -2.109375 17.550781 -1.078125 16.1875 -0.390625 C 14.832031 0.285156 13.410156 0.625 11.921875 0.625 C 10.410156 0.625 8.96875 0.285156 7.59375 -0.390625 C 6.226562 -1.078125 5.101562 -2.109375 4.21875 -3.484375 C 3.332031 -4.859375 2.90625 -6.566406 2.9375 -8.609375 L 2.9375 -24.859375 C 2.9375 -26.015625 2.800781 -26.859375 2.53125 -27.390625 C 2.269531 -27.921875 1.90625 -28.28125 1.4375 -28.46875 C 0.976562 -28.664062 0.441406 -28.804688 -0.171875 -28.890625 L 9.53125 -28.890625 C 8.914062 -28.804688 8.375 -28.664062 7.90625 -28.46875 C 7.445312 -28.28125 7.082031 -27.921875 6.8125 -27.390625 C 6.550781 -26.859375 6.421875 -26.015625 6.421875 -24.859375 L 6.421875 -8.609375 C 6.421875 -6.765625 6.75 -5.238281 7.40625 -4.03125 C 8.070312 -2.820312 8.925781 -1.925781 9.96875 -1.34375 C 11.019531 -0.757812 12.109375 -0.46875 13.234375 -0.46875 C 14.429688 -0.46875 15.578125 -0.773438 16.671875 -1.390625 C 17.765625 -2.003906 18.65625 -2.910156 19.34375 -4.109375 C 20.03125 -5.316406 20.375 -6.816406 20.375 -8.609375 L 20.375 -22.8125 C 20.375 -24.519531 20.09375 -25.925781 19.53125 -27.03125 C 18.96875 -28.132812 18.222656 -28.753906 17.296875 -28.890625 Z M 17.296875 -28.890625 "/></g></g></g><g fill="#000000" fill-opacity="1"><g transform="translate(276.358604, 296.319501)"><g><path d="M 5.71875 -24.03125 C 5.71875 -22.957031 6.023438 -21.957031 6.640625 -21.03125 C 7.253906 -20.113281 8.039062 -19.226562 9 -18.375 C 9.96875 -17.519531 11 -16.65625 12.09375 -15.78125 C 13.1875 -14.914062 14.210938 -14.015625 15.171875 -13.078125 C 16.140625 -12.140625 16.929688 -11.125 17.546875 -10.03125 C 18.171875 -8.945312 18.484375 -7.742188 18.484375 -6.421875 C 18.484375 -5.023438 18.128906 -3.800781 17.421875 -2.75 C 16.722656 -1.695312 15.78125 -0.875 14.59375 -0.28125 C 13.40625 0.300781 12.082031 0.59375 10.625 0.59375 C 9.25 0.59375 7.957031 0.394531 6.75 0 C 5.550781 -0.394531 4.46875 -0.863281 3.5 -1.40625 C 2.539062 -1.945312 1.710938 -2.457031 1.015625 -2.9375 L 2.765625 -10.796875 C 2.597656 -8.773438 2.84375 -6.925781 3.5 -5.25 C 4.164062 -3.570312 5.113281 -2.226562 6.34375 -1.21875 C 7.570312 -0.207031 9 0.296875 10.625 0.296875 C 11.832031 0.296875 12.875 -0.109375 13.75 -0.921875 C 14.632812 -1.734375 15.078125 -3.117188 15.078125 -5.078125 C 15.078125 -6.316406 14.769531 -7.4375 14.15625 -8.4375 C 13.539062 -9.445312 12.75 -10.390625 11.78125 -11.265625 C 10.8125 -12.148438 9.78125 -13.015625 8.6875 -13.859375 C 7.601562 -14.703125 6.578125 -15.5625 5.609375 -16.4375 C 4.640625 -17.320312 3.847656 -18.273438 3.234375 -19.296875 C 2.617188 -20.316406 2.3125 -21.457031 2.3125 -22.71875 C 2.3125 -24.257812 2.695312 -25.523438 3.46875 -26.515625 C 4.238281 -27.515625 5.234375 -28.242188 6.453125 -28.703125 C 7.671875 -29.171875 8.953125 -29.40625 10.296875 -29.40625 C 11.210938 -29.40625 12.144531 -29.289062 13.09375 -29.0625 C 14.050781 -28.84375 14.914062 -28.570312 15.6875 -28.25 C 16.457031 -27.925781 17.050781 -27.640625 17.46875 -27.390625 L 16.25 -19.3125 C 16.25 -20.96875 16.050781 -22.53125 15.65625 -24 C 15.269531 -25.46875 14.632812 -26.671875 13.75 -27.609375 C 12.875 -28.546875 11.691406 -29.015625 10.203125 -29.015625 C 8.941406 -29.015625 7.878906 -28.570312 7.015625 -27.6875 C 6.148438 -26.8125 5.71875 -25.59375 5.71875 -24.03125 Z M 5.71875 -24.03125 "/></g></g></g><g fill="#000000" fill-opacity="1"><g transform="translate(295.84661, 296.319501)"><g><path d="M 11.34375 -0.375 C 12.6875 -0.375 13.769531 -0.617188 14.59375 -1.109375 C 15.414062 -1.597656 16.054688 -2.195312 16.515625 -2.90625 C 16.984375 -3.625 17.304688 -4.328125 17.484375 -5.015625 C 17.671875 -5.703125 17.765625 -6.242188 17.765625 -6.640625 L 17.71875 -0.046875 L 0 -0.046875 C 0.613281 -0.128906 1.148438 -0.257812 1.609375 -0.4375 C 2.078125 -0.625 2.441406 -0.988281 2.703125 -1.53125 C 2.972656 -2.082031 3.109375 -2.914062 3.109375 -4.03125 L 3.109375 -24.859375 C 3.109375 -26.015625 2.972656 -26.859375 2.703125 -27.390625 C 2.441406 -27.921875 2.078125 -28.28125 1.609375 -28.46875 C 1.148438 -28.664062 0.613281 -28.804688 0 -28.890625 L 17.71875 -28.890625 L 17.765625 -22.296875 C 17.765625 -22.660156 17.671875 -23.1875 17.484375 -23.875 C 17.304688 -24.5625 16.984375 -25.257812 16.515625 -25.96875 C 16.054688 -26.6875 15.414062 -27.289062 14.59375 -27.78125 C 13.769531 -28.269531 12.6875 -28.515625 11.34375 -28.515625 L 8.234375 -28.515625 C 7.390625 -28.515625 6.894531 -28.253906 6.75 -27.734375 C 6.613281 -27.222656 6.546875 -26.28125 6.546875 -24.90625 L 6.546875 -15.203125 C 8.398438 -15.253906 9.800781 -15.398438 10.75 -15.640625 C 11.707031 -15.878906 12.375 -16.300781 12.75 -16.90625 C 13.125 -17.507812 13.367188 -18.382812 13.484375 -19.53125 L 13.484375 -10.671875 C 13.367188 -11.816406 13.125 -12.691406 12.75 -13.296875 C 12.375 -13.898438 11.707031 -14.316406 10.75 -14.546875 C 9.800781 -14.785156 8.398438 -14.921875 6.546875 -14.953125 L 6.546875 -3.984375 C 6.546875 -2.617188 6.613281 -1.675781 6.75 -1.15625 C 6.894531 -0.632812 7.390625 -0.375 8.234375 -0.375 Z M 11.34375 -0.375 "/></g></g></g></svg>